<svg width="180" height="180" viewBox="0 0 180 180" fill="none" xmlns="http://www.w3.org/2000/svg">
<path d="M90 180C139.706 180 180 139.706 180 90C180 40.2944 139.706 0 90 0C40.2944 0 0 40.2944 0 90C0 139.706 40.2944 180 90 180Z" fill="#A2D4DE"/>
<path d="M36.0396 84.2119C36.0396 84.2119 22.0001 114.83 24.7618 122.192C24.7618 122.192 22.4611 156.718 85.7593 153.264C85.7593 153.264 93.2871 171.095 109.98 177.746C135.347 171.992 156.644 155.544 168.863 133.371L126.502 32.423L10.6542 47.4814C5.386 57.2927 1.89741 68.1955 0.587097 79.7596C7.16526 81.8626 25.1072 86.9899 36.0396 84.2119Z" fill="#6CC077"/>
<path d="M87.7974 152.642C85.1741 144.04 82.2066 121.593 111.238 99.0172C121.41 91.1013 122.455 82.4938 121.535 76.667C119.791 65.5951 109.286 55.0305 94.775 49.7535C73.8659 42.1478 60.2828 57.3862 49.3686 69.6267C44.3504 75.2529 39.6127 80.5679 35.2823 82.2164C26.4088 85.5959 10.6684 81.3382 0.814417 77.9773C0.619847 79.421 0.462138 80.8723 0.336731 82.3373C10.7892 85.8289 26.9545 89.9559 36.8001 86.2013C42.101 84.1834 46.9429 78.7544 52.549 72.4647C63.1322 60.5955 75.1294 47.1458 93.3184 53.7627C106.394 58.5179 115.818 67.768 117.325 77.3309C118.386 84.0614 115.374 90.3952 108.621 95.6536C77.5011 119.857 80.8396 144.441 83.7213 153.887C87.5215 166.348 96.3224 173.855 106.973 178.382C109.459 177.907 111.908 177.325 114.317 176.649C102.122 172.879 91.8161 165.823 87.7974 152.642Z" fill="white"/>
<path d="M73.9939 153.88C54.7888 153.88 38.1405 150.321 29.6136 140.091C17.359 125.388 21.8231 100.241 40.4666 78.9323L43.5858 81.6608C24.3294 103.668 23.5834 126.382 32.7981 137.437C54.3126 163.256 135.757 142.155 166.42 134.211L169.026 133.533L170.578 137.383L167.459 138.219C147.629 143.358 107.026 153.88 73.9939 153.88Z" fill="white"/>
<path d="M77.2811 47.7667C68.5326 47.7667 61.4384 54.864 61.4384 63.6151C61.4384 75.1389 76.3899 90.5468 77.7371 90.5468C79.0801 90.5468 93.1249 73.7818 93.1249 63.6151C93.1238 54.864 86.0322 47.7667 77.2811 47.7667ZM77.2054 68.9119C73.7693 68.9119 70.9879 66.2031 70.9879 62.8578C70.9879 59.5181 73.7689 56.8093 77.2054 56.8093C80.6389 56.8093 83.423 59.5181 83.423 62.8578C83.423 66.2031 80.6389 68.9119 77.2054 68.9119Z" fill="#CC3432"/>
<path d="M77.7356 91.259C75.7462 91.259 60.7262 75.3437 60.7262 63.6167C60.7262 54.4844 68.1545 47.0576 77.2795 47.0576C86.4088 47.0576 93.8329 54.4859 93.8329 63.6167C93.834 73.9057 79.7151 91.259 77.7356 91.259ZM77.2811 48.4774C68.9377 48.4774 62.149 55.2661 62.149 63.6151C62.149 74.3872 75.4976 88.5316 77.7204 89.7838C79.8435 88.4039 92.4146 73.1138 92.4146 63.6151C92.4131 55.2676 85.6244 48.4774 77.2811 48.4774ZM77.2054 69.6225C73.3855 69.6225 70.2773 66.5884 70.2773 62.8581C70.2773 59.1305 73.3866 56.0991 77.2054 56.0991C81.0243 56.0991 84.1336 59.1305 84.1336 62.8581C84.1336 66.5884 81.0254 69.6225 77.2054 69.6225ZM77.2054 57.52C74.1683 57.52 71.6985 59.9134 71.6985 62.8578C71.6985 65.8022 74.1683 68.2012 77.2054 68.2012C80.2426 68.2012 82.7123 65.8025 82.7123 62.8578C82.7123 59.913 80.2426 57.52 77.2054 57.52Z" fill="#BA2E2D"/>
</svg>
