<svg width="179" height="179" viewBox="0 0 179 179" fill="none" xmlns="http://www.w3.org/2000/svg">
<g clip-path="url(#clip0)">
<path d="M133.319 100.644C146.802 101.233 158.269 109.68 163.278 121.501C169.239 114.246 172.491 105.232 172.491 95.729C172.491 73.2968 154.241 55.0472 131.809 55.0472C122.955 55.0472 114.43 57.9108 107.418 63.1717C121.892 70.2211 132.127 84.2404 133.319 100.644Z" fill="#5CB0FF"/>
<path d="M131.809 107.12C131.316 107.12 130.83 107.133 130.344 107.156C129.467 107.226 128.586 106.88 127.938 106.265C127.293 105.65 126.927 104.798 126.927 103.907C126.927 82.331 108.678 64.8109 86.2455 64.8109C68.4281 64.8109 52.8387 75.7568 47.4579 92.047C46.9812 93.4963 45.5509 94.4291 44.0508 94.2655C42.9415 94.1574 41.8164 94.1018 40.6818 94.1018C21.8378 94.1018 6.50909 109.432 6.50909 128.274C6.50909 147.117 21.8378 162.447 40.6818 162.447C41.184 162.447 41.6798 162.438 42.1756 162.415C42.3853 162.407 42.5951 162.415 42.7953 162.447H132.915C133.029 162.428 133.144 162.415 133.258 162.411C147.958 161.651 159.473 149.516 159.473 134.784C159.473 119.53 147.062 107.12 131.809 107.12ZM40.6818 155.938C25.4293 155.938 13.0182 143.529 13.0182 128.274C13.0182 126.477 14.4739 125.02 16.2727 125.02C18.0716 125.02 19.5273 126.477 19.5273 128.274C19.5273 139.939 29.0176 149.429 40.6818 149.429C42.4807 149.429 43.9364 150.886 43.9364 152.684C43.9364 154.481 42.4807 155.938 40.6818 155.938Z" fill="#D0E8FF"/>
<path d="M179 95.729C179 69.7085 157.83 48.5381 131.809 48.5381C120.225 48.5381 109.134 52.7795 100.493 60.4566C95.9918 59.0756 91.2139 58.3018 86.2454 58.3018C66.4926 58.3018 49.0851 69.9819 42.1407 87.6181C41.6575 87.6006 41.1713 87.5927 40.6818 87.5927C18.2496 87.5927 0 105.842 0 128.274C0 150.707 18.2496 168.956 40.6818 168.956C41.1077 168.956 41.5336 168.95 41.9563 168.937C42.0739 168.95 42.1915 168.956 42.3091 168.956H133.436C133.672 168.956 133.904 168.929 134.126 168.878C152.032 167.679 165.982 152.804 165.982 134.784C165.982 132.751 165.776 130.768 165.434 128.831C174.18 119.948 179 108.199 179 95.729ZM131.809 55.0472C154.241 55.0472 172.491 73.2968 172.491 95.729C172.491 105.232 169.239 114.246 163.278 121.501C158.269 109.68 146.802 101.233 133.319 100.644C132.127 84.2404 121.892 70.221 107.418 63.1716C114.43 57.9109 122.955 55.0472 131.809 55.0472ZM133.258 162.411C133.144 162.415 133.03 162.428 132.915 162.447H42.7954C42.5952 162.415 42.3854 162.408 42.1757 162.415C41.6798 162.438 41.184 162.447 40.6819 162.447C21.8379 162.447 6.50917 147.117 6.50917 128.274C6.50917 109.432 21.8379 94.1018 40.6819 94.1018C41.8165 94.1018 42.9416 94.1574 44.0508 94.2655C45.551 94.4292 46.9812 93.4963 47.4579 92.047C52.8387 75.7569 68.4281 64.8109 86.2454 64.8109C108.678 64.8109 126.927 82.331 126.927 103.907C126.927 104.798 127.293 105.65 127.938 106.265C128.586 106.88 129.467 107.226 130.344 107.156C130.83 107.133 131.316 107.12 131.809 107.12C147.062 107.12 159.473 119.53 159.473 134.784C159.473 149.516 147.958 161.651 133.258 162.411Z" fill="#1C71DA"/>
<path d="M40.6818 149.429C29.0176 149.429 19.5273 139.939 19.5273 128.275C19.5273 126.477 18.0716 125.02 16.2727 125.02C14.4738 125.02 13.0182 126.477 13.0182 128.275C13.0182 143.529 25.4293 155.938 40.6818 155.938C42.4807 155.938 43.9364 154.481 43.9364 152.684C43.9364 150.886 42.4807 149.429 40.6818 149.429Z" fill="#1C71DA"/>
<path d="M88.1863 28.0607C87.3536 28.0607 86.5209 27.7429 85.8852 27.1076C84.6139 25.8363 84.6139 23.7756 85.8852 22.5047L97.3922 10.9982C98.6619 9.72767 100.723 9.72767 101.994 10.9982C103.266 12.2695 103.266 14.3302 101.994 15.6011L90.4873 27.1076C89.8525 27.7429 89.019 28.0607 88.1863 28.0607Z" fill="#FF5D5D"/>
<path d="M99.6932 28.0591C98.8606 28.0591 98.0278 27.7413 97.3922 27.106L85.8852 15.5995C84.6139 14.3286 84.6139 12.2679 85.8852 10.9966C87.1549 9.72613 89.2161 9.72613 90.4873 10.9966L101.994 22.5031C103.266 23.774 103.266 25.8347 101.994 27.1061C101.359 27.7413 100.526 28.0591 99.6932 28.0591Z" fill="#FF5D5D"/>
<path d="M164.668 37.8243C158.387 37.8243 153.277 32.7144 153.277 26.4334C153.277 20.1524 158.387 15.0425 164.668 15.0425C170.949 15.0425 176.059 20.1524 176.059 26.4334C176.059 32.7144 170.949 37.8243 164.668 37.8243ZM164.668 21.5516C161.976 21.5516 159.786 23.7414 159.786 26.4334C159.786 29.1254 161.976 31.3152 164.668 31.3152C167.36 31.3152 169.55 29.1254 169.55 26.4334C169.55 23.7414 167.36 21.5516 164.668 21.5516Z" fill="#00D40B"/>
<path d="M35.555 56.2333C34.7223 56.2333 33.8888 55.9155 33.254 55.2802L24.0489 46.0751C22.7776 44.8038 22.7776 42.7435 24.0489 41.4726L33.254 32.2671C33.8642 31.6565 34.6922 31.3136 35.555 31.3136C36.4179 31.3136 37.2458 31.6565 37.8561 32.2671L47.0611 41.4726C48.3324 42.7435 48.3324 44.8038 47.0611 46.0751L37.8561 55.2802C37.2212 55.9155 36.3877 56.2333 35.555 56.2333ZM30.9528 43.7736L35.5549 48.3761L40.157 43.7736L35.5549 39.1707L30.9528 43.7736Z" fill="#FFC504"/>
</g>
<defs>
<clipPath id="clip0">
<rect width="179" height="179" fill="white"/>
</clipPath>
</defs>
</svg>
