<svg width="150" height="150" viewBox="0 0 150 150" fill="none" xmlns="http://www.w3.org/2000/svg">
<path d="M31.6414 49.2187C38.1135 49.2187 43.3602 43.972 43.3602 37.4999C43.3602 31.0279 38.1135 25.7812 31.6414 25.7812C25.1694 25.7812 19.9227 31.0279 19.9227 37.4999C19.9227 43.972 25.1694 49.2187 31.6414 49.2187Z" fill="#84DCCF"/>
<path d="M24.6096 42.1874C24.6096 35.7152 29.8564 30.4687 36.3283 30.4687C38.3542 30.4687 40.231 31.0294 41.8936 31.9347C39.9078 28.2864 36.0869 25.7812 31.6408 25.7812C25.1686 25.7812 19.9221 31.028 19.9221 37.4999C19.9221 41.9457 22.4273 45.7669 26.0753 47.7529C25.1706 46.0903 24.6096 44.2136 24.6096 42.1874Z" fill="#027EA8"/>
<path d="M92.5768 25.7806C99.0488 25.7806 104.295 20.534 104.295 14.0619C104.295 7.58982 99.0488 2.34316 92.5768 2.34316C86.1047 2.34316 80.858 7.58982 80.858 14.0619C80.858 20.534 86.1047 25.7806 92.5768 25.7806Z" fill="#027EA8"/>
<path d="M85.547 18.75C85.547 12.2777 90.7938 7.03123 97.2657 7.03123C99.2916 7.03123 101.168 7.59197 102.831 8.49725C100.845 4.84891 97.0243 2.34374 92.5782 2.34374C86.106 2.34374 80.8595 7.59051 80.8595 14.0625C80.8595 18.5083 83.3647 22.3294 87.0127 24.3155C86.108 22.6529 85.547 20.7761 85.547 18.75Z" fill="#84DCCF"/>
<path d="M19.9239 133.592C26.396 133.592 31.6426 128.346 31.6426 121.874C31.6426 115.402 26.396 110.155 19.9239 110.155C13.4518 110.155 8.20517 115.402 8.20517 121.874C8.20517 128.346 13.4518 133.592 19.9239 133.592Z" fill="#F15A24"/>
<path d="M12.8912 126.562C12.8912 120.09 18.1379 114.844 24.6099 114.844C26.6358 114.844 28.5125 115.404 30.1751 116.31C28.1894 112.661 24.3682 110.156 19.9224 110.156C13.4502 110.156 8.20369 115.403 8.20369 121.875C8.20369 126.321 10.7089 130.142 14.3569 132.128C13.4522 130.465 12.8912 128.588 12.8912 126.562Z" fill="#FBB03B"/>
<path d="M94.9208 147.657C101.393 147.657 106.64 142.41 106.64 135.938C106.64 129.466 101.393 124.22 94.9208 124.22C88.4487 124.22 83.2021 129.466 83.2021 135.938C83.2021 142.41 88.4487 147.657 94.9208 147.657Z" fill="#84DCCF"/>
<path d="M87.8911 140.625C87.8911 134.152 93.1378 128.906 99.6098 128.906C101.636 128.906 103.512 129.467 105.175 130.372C103.189 126.724 99.3684 124.219 94.9223 124.219C88.45 124.219 83.2036 129.465 83.2036 135.937C83.2036 140.383 85.7087 144.204 89.3568 146.19C88.4518 144.527 87.8911 142.651 87.8911 140.625Z" fill="#027EA8"/>
<path d="M127.736 75.0002C131.619 75.0002 134.768 71.8516 134.768 67.9677C134.768 64.0839 131.619 60.9353 127.736 60.9353C123.852 60.9353 120.703 64.0839 120.703 67.9677C120.703 71.8516 123.852 75.0002 127.736 75.0002Z" fill="#84DCCF"/>
<path d="M127.734 67.9686C127.734 65.3726 129.157 63.1305 131.25 61.9127C130.212 61.3089 129.022 60.9374 127.734 60.9374C123.851 60.9374 120.703 64.0853 120.703 67.9686C120.703 71.8519 123.851 74.9998 127.734 74.9998C129.022 74.9998 130.212 74.6287 131.25 74.0246C129.157 72.8067 127.734 70.5643 127.734 67.9686Z" fill="#35DCC3"/>
<path d="M134.765 28.1264C138.649 28.1264 141.797 24.9779 141.797 21.094C141.797 17.2101 138.649 14.0616 134.765 14.0616C130.881 14.0616 127.733 17.2101 127.733 21.094C127.733 24.9779 130.881 28.1264 134.765 28.1264Z" fill="#F15A24"/>
<path d="M134.766 21.0937C134.766 18.4977 136.189 16.2556 138.281 15.0378C137.243 14.434 136.053 14.0625 134.766 14.0625C130.882 14.0625 127.734 17.2104 127.734 21.0937C127.734 24.977 130.882 28.1249 134.766 28.1249C136.053 28.1249 137.243 27.7538 138.281 27.1497C136.189 25.9318 134.766 23.6897 134.766 21.0937Z" fill="#F14507"/>
<path d="M57.4209 142.971C61.3048 142.971 64.4533 139.822 64.4533 135.938C64.4533 132.055 61.3048 128.906 57.4209 128.906C53.537 128.906 50.3885 132.055 50.3885 135.938C50.3885 139.822 53.537 142.971 57.4209 142.971Z" fill="#FBB03B"/>
<path d="M57.4221 135.937C57.4221 133.341 58.845 131.099 60.9377 129.881C59.8997 129.277 58.7094 128.906 57.4221 128.906C53.5388 128.906 50.3908 132.054 50.3908 135.937C50.3908 139.82 53.5388 142.968 57.4221 142.968C58.7094 142.968 59.9 142.597 60.9377 141.993C58.845 140.775 57.4221 138.533 57.4221 135.937Z" fill="#FB9E0C"/>
<path d="M76.1709 96.0942C87.8207 96.0942 97.2648 86.65 97.2648 75.0001C97.2648 63.3503 87.8207 53.9061 76.1709 53.9061C64.521 53.9061 55.0769 63.3503 55.0769 75.0001C55.0769 86.65 64.521 96.0942 76.1709 96.0942Z" fill="#FBB03B"/>
<path d="M66.797 75.0001C66.797 65.3858 73.2356 57.2899 82.0314 54.7484C80.1693 54.2105 78.2076 53.9064 76.172 53.9064C64.5224 53.9064 55.0783 63.3503 55.0783 75.0001C55.0783 86.6497 64.5221 96.0939 76.172 96.0939C78.2073 96.0939 80.1693 95.7901 82.0314 95.2519C73.2356 92.7104 66.797 84.6139 66.797 75.0001Z" fill="#F15A24"/>
<path d="M61.9616 83.2038C60.9796 81.5058 60.3172 79.6651 59.9928 77.7321L62.2686 77.35L64.6018 76.8822L64.6153 76.956C64.8467 78.3338 65.3187 79.6463 66.0189 80.8569L61.9616 83.2038Z" fill="white"/>
<path d="M64.4536 75.0002H59.7658C59.7658 65.9539 67.2271 58.5939 76.0671 58.5939V63.2817C69.6658 63.2811 64.4536 68.5382 64.4536 75.0002Z" fill="white"/>
<path d="M90.2345 14.0343H85.547C85.547 10.0717 88.5649 7.03153 92.5276 7.03153V11.7193C91.3085 11.7187 90.2345 12.815 90.2345 14.0343Z" fill="white"/>
<path d="M29.2974 37.5061H24.6096C24.6096 33.5434 27.9043 30.4687 31.562 30.4687V35.1565C30.343 35.1565 29.2974 36.2868 29.2974 37.5061Z" fill="white"/>
<path d="M92.5782 135.966H87.8907C87.8907 132.003 91.0035 128.906 94.9665 128.906V133.593C93.7472 133.593 92.5782 134.746 92.5782 135.966Z" fill="white"/>
<path d="M17.5787 121.944H12.8909C12.8909 117.981 16.016 114.844 19.9787 114.844V119.531C18.7593 119.531 17.5787 120.724 17.5787 121.944Z" fill="white"/>
<path d="M92.5782 28.1249C98.5653 28.1249 103.687 24.3626 105.712 19.0796L125.599 23.0569C126.504 27.2868 130.27 30.4687 134.766 30.4687C139.935 30.4687 144.141 26.2628 144.141 21.0937C144.141 15.9246 139.935 11.7187 134.766 11.7187C130.562 11.7187 126.996 14.4999 125.81 18.3187L106.63 14.4829C106.634 14.3428 106.641 14.2037 106.641 14.0628C106.641 6.30848 100.332 0 92.5782 0C84.824 0 78.5158 6.30848 78.5158 14.0628C78.5158 20.0291 82.2526 25.1364 87.5072 27.1754L81.7246 52.2327C79.9434 51.7982 78.0851 51.5624 76.172 51.5624C69.9139 51.5624 64.2254 54.0327 60.0177 58.0434L44.0627 44.0829C45.1086 42.1177 45.7036 39.8774 45.7036 37.5002C45.7036 29.7459 39.3951 23.4375 31.6409 23.4375C23.8866 23.4375 17.5784 29.7462 17.5784 37.5002C17.5784 45.2542 23.8869 51.5627 31.6409 51.5627C35.3281 51.5627 38.6864 50.1342 41.1969 47.8045L56.9612 61.5983C54.3014 65.3996 52.7346 70.0191 52.7346 75.0004C52.7346 79.9715 54.2949 84.5828 56.9448 88.3797L29.5057 111.597C26.992 109.252 23.6229 107.813 19.9221 107.813C12.1678 107.813 5.85936 114.121 5.85936 121.875C5.85936 129.629 12.1678 135.938 19.9221 135.938C27.6764 135.938 33.9846 129.63 33.9846 121.875C33.9846 119.51 33.3951 117.281 32.3595 115.323L59.9969 91.9375C64.2069 95.9597 69.9037 98.4379 76.172 98.4379C77.9415 98.4379 79.6633 98.2343 81.3215 97.8608L89.667 122.898C85.228 124.693 81.9098 128.689 81.0702 133.527H66.4812C65.4151 129.522 61.7583 126.562 57.4221 126.562C52.2526 126.562 48.0471 130.768 48.0471 135.937C48.0471 141.106 52.2529 145.312 57.4221 145.312C61.8473 145.312 65.5633 142.23 66.5427 138.099H81.0259C82.0692 144.831 87.903 150 94.9217 150C102.676 150 108.984 143.691 108.984 135.937C108.984 128.183 102.676 121.874 94.9217 121.874C94.704 121.874 94.4875 121.881 94.2725 121.891L85.767 96.3745C93.9177 92.701 99.6089 84.5052 99.6089 74.9996C99.6089 74.8586 99.6007 74.7198 99.5983 74.5794L118.779 70.7433C119.964 74.5622 123.53 77.3436 127.734 77.3436C132.903 77.3436 137.109 73.1377 137.109 67.9686C137.109 62.7995 132.903 58.5936 127.734 58.5936C123.238 58.5936 119.473 61.7759 118.568 66.0054L99.0458 69.9101C97.4603 62.7807 92.6225 56.8645 86.1716 53.8086L92.1016 28.1132C92.2604 28.1182 92.4186 28.1249 92.5782 28.1249ZM134.766 16.4065C137.35 16.4065 139.453 18.5091 139.453 21.094C139.453 23.6789 137.351 25.7815 134.766 25.7815C132.181 25.7812 130.078 23.6786 130.078 21.0937C130.078 18.5089 132.181 16.4065 134.766 16.4065ZM57.4221 140.625C54.8375 140.625 52.7346 138.522 52.7346 135.937C52.7346 133.352 54.8372 131.249 57.4221 131.249C60.0069 131.249 62.1095 133.352 62.1095 135.937C62.1098 138.522 60.0069 140.625 57.4221 140.625ZM104.297 135.937C104.297 141.106 100.091 145.312 94.922 145.312C89.7523 145.312 85.5467 141.107 85.5467 135.937C85.5467 130.768 89.7526 126.562 94.922 126.562C100.091 126.562 104.297 130.768 104.297 135.937ZM127.734 63.2811C130.319 63.2811 132.422 65.3838 132.422 67.9686C132.422 70.5535 130.32 72.6561 127.734 72.6561C125.15 72.6561 123.047 70.5535 123.047 67.9686C123.047 65.3838 125.15 63.2811 127.734 63.2811ZM31.6409 46.8746C26.4714 46.8746 22.2662 42.6691 22.2662 37.4999C22.2662 32.3302 26.4717 28.1249 31.6409 28.1249C36.81 28.1249 41.0158 32.3305 41.0158 37.4999C41.0158 42.6693 36.8106 46.8746 31.6409 46.8746ZM19.9224 131.25C14.7527 131.25 10.5474 127.044 10.5474 121.875C10.5474 116.705 14.753 112.5 19.9224 112.5C25.0918 112.5 29.2971 116.705 29.2971 121.875C29.2971 127.044 25.0915 131.25 19.9224 131.25ZM94.922 75.0002C94.922 85.339 86.5106 93.7501 76.172 93.7501C65.8335 93.7501 57.4221 85.339 57.4221 75.0002C57.4221 64.6613 65.8332 56.2502 76.172 56.2502C86.5109 56.2502 94.922 64.661 94.922 75.0002ZM83.2033 14.0628C83.2033 8.89305 87.4091 4.68778 92.5782 4.68778C97.748 4.68778 101.954 8.89334 101.954 14.0628C101.954 19.2322 97.7477 23.4375 92.5782 23.4375C87.4091 23.4375 83.2033 19.2319 83.2033 14.0628Z" fill="black"/>
</svg>
