<svg width="70" height="72" viewBox="0 0 70 72" fill="none" xmlns="http://www.w3.org/2000/svg">
<path d="M20.2787 1.2511H48.819" stroke="#AD00FF"/>
<path d="M48.7214 69.749H20.1811" stroke="#AD00FF"/>
<path d="M0.500001 21.2787L0.5 49.819" stroke="#AD00FF"/>
<path d="M68.8466 21.2787V49.819" stroke="#AD00FF"/>
<path d="M0.397522 21.5785L20.5786 1.39746" stroke="#AD00FF"/>
<path d="M68.6025 49.4214L48.4215 69.6025" stroke="#AD00FF"/>
<path d="M68.6465 21.5347L48.4654 1.35364" stroke="#AD00FF"/>
<path d="M0.353546 49.4653L20.5346 69.6464" stroke="#AD00FF"/>
<path d="M20.6909 1.2511H48.4039" stroke="#AD00FF"/>
<path d="M48.3092 69.749H20.5961" stroke="#AD00FF"/>
<path d="M1.5 21.2787V49.819" stroke="#AD00FF"/>
<path d="M67.8655 21.2787V49.819" stroke="#AD00FF"/>
<path d="M1.38098 21.5734L20.9771 1.39233" stroke="#AD00FF"/>
<path d="M67.6191 49.4265L48.0231 69.6075" stroke="#AD00FF"/>
<path d="M67.6517 21.5399L48.0556 1.35888" stroke="#AD00FF"/>
<path d="M1.34833 49.4602L20.9444 69.6412" stroke="#AD00FF"/>
<path d="M20.2787 2.2511H48.819" stroke="#AD00FF"/>
<path d="M48.7214 70.749H20.1811" stroke="#AD00FF"/>
<path d="M0.500001 22.2787L0.5 50.819" stroke="#AD00FF"/>
<path d="M68.8466 22.2787V50.819" stroke="#AD00FF"/>
<path d="M0.397522 22.5785L20.5786 2.39746" stroke="#AD00FF"/>
<path d="M68.6025 50.4214L48.4215 70.6025" stroke="#AD00FF"/>
<path d="M68.6465 22.5347L48.4654 2.35364" stroke="#AD00FF"/>
<path d="M0.353546 50.4653L20.5346 70.6464" stroke="#AD00FF"/>
<path d="M20.6909 2.2511H48.4039" stroke="#AD00FF"/>
<path d="M48.3092 70.749H20.5961" stroke="#AD00FF"/>
<path d="M1.5 22.2787V50.819" stroke="#AD00FF"/>
<path d="M67.8655 22.2787V50.819" stroke="#AD00FF"/>
<path d="M1.38098 22.5734L20.9771 2.39233" stroke="#AD00FF"/>
<path d="M67.6191 50.4265L48.0231 70.6075" stroke="#AD00FF"/>
<path d="M67.6517 22.5399L48.0556 2.35888" stroke="#AD00FF"/>
<path d="M1.34833 50.4602L20.9444 70.6412" stroke="#AD00FF"/>
<path d="M34.9808 16.8334C24.4008 16.8334 15.8333 25.42 15.8333 36C15.8333 46.58 24.4008 55.1667 34.9808 55.1667C45.58 55.1667 54.1667 46.58 54.1667 36C54.1667 25.42 45.58 16.8334 34.9808 16.8334ZM43.1075 47.5L35 42.6125L26.8925 47.5L29.0392 38.2809L21.89 32.09L31.32 31.285L35 22.5834L38.68 31.2659L48.11 32.0709L40.9608 38.2617L43.1075 47.5Z" fill="#AD00FF"/>
</svg>
