<svg width="190" height="47" viewBox="0 0 190 47" fill="none" xmlns="http://www.w3.org/2000/svg">
<path d="M0.64 36V10.8H8.32V36H0.64ZM0.64 7.92V0.959999H8.32V7.92H0.64Z" fill="#00C2FF"/>
<path d="M14.6815 36V1.92H29.2255C30.8575 1.92 32.3455 2.256 33.6895 2.928C35.0655 3.6 36.2335 4.48 37.1935 5.568C38.1855 6.656 38.9535 7.888 39.4975 9.264C40.0735 10.64 40.3615 12.032 40.3615 13.44C40.3615 14.944 40.0895 16.384 39.5455 17.76C39.0335 19.136 38.2975 20.368 37.3375 21.456C36.4095 22.544 35.2735 23.408 33.9295 24.048C32.5855 24.688 31.0975 25.008 29.4655 25.008H22.5535V36H14.6815ZM22.5535 18.144H28.9855C29.9135 18.144 30.7135 17.744 31.3855 16.944C32.0575 16.144 32.3935 14.976 32.3935 13.44C32.3935 12.64 32.2815 11.952 32.0575 11.376C31.8655 10.8 31.5935 10.32 31.2415 9.936C30.8895 9.552 30.4895 9.28 30.0415 9.12C29.5935 8.928 29.1455 8.832 28.6975 8.832H22.5535V18.144ZM51.3614 36.48C50.1134 36.48 48.9454 36.288 47.8574 35.904C46.8014 35.488 45.8894 34.928 45.1214 34.224C44.3534 33.488 43.7454 32.64 43.2974 31.68C42.8494 30.688 42.6254 29.616 42.6254 28.464C42.6254 27.216 42.8814 26.08 43.3934 25.056C43.9374 24.032 44.6894 23.152 45.6494 22.416C46.6094 21.68 47.7454 21.104 49.0574 20.688C50.3694 20.272 51.8254 20.064 53.4254 20.064C54.4814 20.064 55.5054 20.16 56.4974 20.352C57.4894 20.512 58.3534 20.768 59.0894 21.12V19.968C59.0894 17.056 57.4094 15.6 54.0494 15.6C52.6734 15.6 51.3614 15.84 50.1134 16.32C48.8654 16.768 47.5534 17.456 46.1774 18.384L43.9214 13.584C45.5854 12.496 47.3134 11.68 49.1054 11.136C50.8974 10.592 52.8014 10.32 54.8174 10.32C58.6254 10.32 61.5694 11.216 63.6494 13.008C65.7294 14.8 66.7694 17.424 66.7694 20.88V27.36C66.7694 28.128 66.8814 28.672 67.1054 28.992C67.3614 29.28 67.7934 29.456 68.4014 29.52V36C67.7294 36.16 67.1214 36.256 66.5774 36.288C66.0334 36.352 65.5374 36.384 65.0894 36.384C63.6494 36.384 62.5614 36.112 61.8254 35.568C61.0894 34.992 60.6254 34.192 60.4334 33.168L60.2894 32.016C59.1694 33.456 57.8254 34.56 56.2574 35.328C54.7214 36.096 53.0894 36.48 51.3614 36.48ZM53.6174 30.96C54.4494 30.96 55.2494 30.816 56.0174 30.528C56.8174 30.24 57.4734 29.856 57.9854 29.376C58.7214 28.8 59.0894 28.192 59.0894 27.552V25.152C58.4174 24.896 57.6814 24.704 56.8814 24.576C56.1134 24.416 55.3934 24.336 54.7214 24.336C53.3134 24.336 52.1454 24.656 51.2174 25.296C50.3214 25.936 49.8734 26.768 49.8734 27.792C49.8734 28.72 50.2254 29.488 50.9294 30.096C51.6334 30.672 52.5294 30.96 53.6174 30.96ZM88.7984 17.376C86.9424 17.408 85.2624 17.712 83.7584 18.288C82.2544 18.864 81.1664 19.728 80.4944 20.88V36H72.8144V10.8H79.8704V15.888C80.7344 14.192 81.8384 12.864 83.1824 11.904C84.5584 10.944 86.0144 10.448 87.5504 10.416C87.9024 10.416 88.1584 10.416 88.3184 10.416C88.4784 10.416 88.6384 10.432 88.7984 10.464V17.376ZM109.457 36L102.881 25.872L100.193 28.656V36H92.5131V0.959999H100.193V21.264L108.689 10.8H116.849L107.777 21.648L117.617 36H109.457ZM120.321 36V10.8H128.001V36H120.321ZM120.321 7.92V0.959999H128.001V7.92H120.321ZM158.027 36H150.347V21.84C150.347 20.176 150.027 18.976 149.387 18.24C148.779 17.472 147.963 17.088 146.939 17.088C146.395 17.088 145.851 17.2 145.307 17.424C144.763 17.648 144.235 17.968 143.723 18.384C143.211 18.768 142.747 19.232 142.331 19.776C141.947 20.32 141.643 20.912 141.419 21.552V36H133.739V10.8H140.651V15.024C141.579 13.52 142.891 12.368 144.587 11.568C146.283 10.736 148.235 10.32 150.443 10.32C152.075 10.32 153.387 10.624 154.379 11.232C155.371 11.808 156.139 12.576 156.683 13.536C157.227 14.464 157.579 15.488 157.739 16.608C157.931 17.728 158.027 18.816 158.027 19.872V36ZM173.401 36.096C171.737 36.096 170.217 35.76 168.841 35.088C167.465 34.416 166.281 33.504 165.289 32.352C164.329 31.2 163.577 29.856 163.033 28.32C162.489 26.784 162.217 25.136 162.217 23.376C162.217 21.52 162.505 19.808 163.081 18.24C163.657 16.64 164.457 15.264 165.481 14.112C166.505 12.928 167.737 12 169.177 11.328C170.617 10.656 172.201 10.32 173.929 10.32C175.849 10.32 177.513 10.736 178.921 11.568C180.361 12.368 181.513 13.488 182.377 14.928V10.8H189.049V34.272C189.049 36.192 188.681 37.92 187.945 39.456C187.241 40.992 186.249 42.288 184.969 43.344C183.689 44.432 182.153 45.264 180.361 45.84C178.569 46.416 176.601 46.704 174.457 46.704C171.737 46.704 169.417 46.272 167.497 45.408C165.577 44.544 163.897 43.296 162.457 41.664L166.585 37.488C167.513 38.544 168.665 39.376 170.041 39.984C171.417 40.624 172.889 40.944 174.457 40.944C175.385 40.944 176.265 40.816 177.097 40.56C177.929 40.304 178.665 39.904 179.305 39.36C179.945 38.848 180.441 38.16 180.793 37.296C181.177 36.464 181.369 35.456 181.369 34.272V31.824C180.601 33.232 179.497 34.304 178.057 35.04C176.617 35.744 175.065 36.096 173.401 36.096ZM176.041 30C177.225 30 178.281 29.68 179.209 29.04C180.137 28.368 180.857 27.52 181.369 26.496V21.216C180.857 19.872 180.073 18.816 179.017 18.048C177.961 17.248 176.841 16.848 175.657 16.848C174.825 16.848 174.057 17.04 173.353 17.424C172.681 17.776 172.089 18.272 171.577 18.912C171.097 19.52 170.713 20.24 170.425 21.072C170.169 21.872 170.041 22.704 170.041 23.568C170.041 24.496 170.185 25.36 170.473 26.16C170.793 26.928 171.225 27.6 171.769 28.176C172.313 28.752 172.937 29.2 173.641 29.52C174.377 29.84 175.177 30 176.041 30Z" fill="white"/>
</svg>
