<svg width="70" height="72" viewBox="0 0 70 72" fill="none" xmlns="http://www.w3.org/2000/svg">
<path d="M20.2787 1.2511H48.819" stroke="#AD00FF"/>
<path d="M48.7214 69.749H20.1811" stroke="#AD00FF"/>
<path d="M0.500001 21.2787L0.5 49.819" stroke="#AD00FF"/>
<path d="M68.8466 21.2787V49.819" stroke="#AD00FF"/>
<path d="M0.397522 21.5785L20.5786 1.39746" stroke="#AD00FF"/>
<path d="M68.6025 49.4214L48.4215 69.6025" stroke="#AD00FF"/>
<path d="M68.6465 21.5347L48.4654 1.35364" stroke="#AD00FF"/>
<path d="M0.353546 49.4655L20.5346 69.6466" stroke="#AD00FF"/>
<path d="M20.6909 1.2511H48.4039" stroke="#AD00FF"/>
<path d="M48.3092 69.749H20.5961" stroke="#AD00FF"/>
<path d="M1.5 21.2787V49.819" stroke="#AD00FF"/>
<path d="M67.8655 21.2787V49.819" stroke="#AD00FF"/>
<path d="M1.38098 21.5734L20.9771 1.39233" stroke="#AD00FF"/>
<path d="M67.6191 49.4266L48.0231 69.6077" stroke="#AD00FF"/>
<path d="M67.6517 21.5399L48.0556 1.35888" stroke="#AD00FF"/>
<path d="M1.34833 49.4603L20.9444 69.6414" stroke="#AD00FF"/>
<path d="M20.2787 2.2511H48.819" stroke="#AD00FF"/>
<path d="M48.7214 70.749H20.1811" stroke="#AD00FF"/>
<path d="M0.500001 22.2787L0.5 50.819" stroke="#AD00FF"/>
<path d="M68.8466 22.2787V50.819" stroke="#AD00FF"/>
<path d="M0.397522 22.5785L20.5786 2.39746" stroke="#AD00FF"/>
<path d="M68.6025 50.4214L48.4215 70.6025" stroke="#AD00FF"/>
<path d="M68.6465 22.5347L48.4654 2.35364" stroke="#AD00FF"/>
<path d="M0.353546 50.4655L20.5346 70.6466" stroke="#AD00FF"/>
<path d="M20.6909 2.2511H48.4039" stroke="#AD00FF"/>
<path d="M48.3092 70.749H20.5961" stroke="#AD00FF"/>
<path d="M1.5 22.2787V50.819" stroke="#AD00FF"/>
<path d="M67.8655 22.2787V50.819" stroke="#AD00FF"/>
<path d="M1.38098 22.5734L20.9771 2.39233" stroke="#AD00FF"/>
<path d="M67.6191 50.4266L48.0231 70.6077" stroke="#AD00FF"/>
<path d="M67.6517 22.5399L48.0556 2.35888" stroke="#AD00FF"/>
<path d="M1.34833 50.4603L20.9444 70.6414" stroke="#AD00FF"/>
<path d="M29.25 36.5209C27.9275 36.5209 26.8542 37.5942 26.8542 38.9167C26.8542 40.2392 27.9275 41.3125 29.25 41.3125C30.5725 41.3125 31.6458 40.2392 31.6458 38.9167C31.6458 37.5942 30.5725 36.5209 29.25 36.5209ZM40.75 36.5209C39.4275 36.5209 38.3542 37.5942 38.3542 38.9167C38.3542 40.2392 39.4275 41.3125 40.75 41.3125C42.0725 41.3125 43.1458 40.2392 43.1458 38.9167C43.1458 37.5942 42.0725 36.5209 40.75 36.5209ZM35 17.8334C24.42 17.8334 15.8333 26.42 15.8333 37C15.8333 47.58 24.42 56.1667 35 56.1667C45.58 56.1667 54.1667 47.58 54.1667 37C54.1667 26.42 45.58 17.8334 35 17.8334ZM35 52.3334C26.5475 52.3334 19.6667 45.4525 19.6667 37C19.6667 36.4442 19.705 35.8884 19.7625 35.3517C24.2858 33.3392 27.87 29.64 29.7483 25.0592C33.2175 29.9659 38.9292 33.1667 45.3883 33.1667C46.8833 33.1667 48.3208 32.9942 49.7008 32.6684C50.1033 34.0292 50.3333 35.4859 50.3333 37C50.3333 45.4525 43.4525 52.3334 35 52.3334Z" fill="#AD00FF"/>
</svg>
