<svg width="70" height="72" viewBox="0 0 70 72" fill="none" xmlns="http://www.w3.org/2000/svg">
<path d="M20.2787 1.2511H48.819" stroke="#AD00FF"/>
<path d="M48.7214 69.749H20.1811" stroke="#AD00FF"/>
<path d="M0.500001 21.2787L0.5 49.819" stroke="#AD00FF"/>
<path d="M68.8466 21.2787V49.819" stroke="#AD00FF"/>
<path d="M0.397507 21.5785L20.5786 1.39746" stroke="#AD00FF"/>
<path d="M68.6025 49.4214L48.4215 69.6025" stroke="#AD00FF"/>
<path d="M68.6465 21.5347L48.4654 1.35364" stroke="#AD00FF"/>
<path d="M0.353554 49.4655L20.5346 69.6466" stroke="#AD00FF"/>
<path d="M20.6909 1.2511H48.4039" stroke="#AD00FF"/>
<path d="M48.3092 69.749H20.5961" stroke="#AD00FF"/>
<path d="M1.5 21.2787V49.819" stroke="#AD00FF"/>
<path d="M67.8655 21.2787V49.819" stroke="#AD00FF"/>
<path d="M1.38097 21.5734L20.9771 1.39233" stroke="#AD00FF"/>
<path d="M67.6191 49.4266L48.023 69.6077" stroke="#AD00FF"/>
<path d="M67.6517 21.5399L48.0556 1.35888" stroke="#AD00FF"/>
<path d="M1.34832 49.4603L20.9444 69.6414" stroke="#AD00FF"/>
<path d="M20.2787 2.2511H48.819" stroke="#AD00FF"/>
<path d="M48.7214 70.749H20.1811" stroke="#AD00FF"/>
<path d="M0.500001 22.2787L0.5 50.819" stroke="#AD00FF"/>
<path d="M68.8466 22.2787V50.819" stroke="#AD00FF"/>
<path d="M0.397507 22.5785L20.5786 2.39746" stroke="#AD00FF"/>
<path d="M68.6025 50.4214L48.4215 70.6025" stroke="#AD00FF"/>
<path d="M68.6465 22.5347L48.4654 2.35364" stroke="#AD00FF"/>
<path d="M0.353554 50.4655L20.5346 70.6466" stroke="#AD00FF"/>
<path d="M20.6909 2.2511H48.4039" stroke="#AD00FF"/>
<path d="M48.3092 70.749H20.5961" stroke="#AD00FF"/>
<path d="M1.5 22.2787V50.819" stroke="#AD00FF"/>
<path d="M67.8655 22.2787V50.819" stroke="#AD00FF"/>
<path d="M1.38097 22.5734L20.9771 2.39233" stroke="#AD00FF"/>
<path d="M67.6191 50.4266L48.023 70.6077" stroke="#AD00FF"/>
<path d="M67.6517 22.5399L48.0556 2.35888" stroke="#AD00FF"/>
<path d="M1.34832 50.4603L20.9444 70.6414" stroke="#AD00FF"/>
<path d="M28.25 34.5433V27.375C28.25 24.73 30.3967 22.5833 33.0417 22.5833C35.6867 22.5833 37.8333 24.73 37.8333 27.375V34.5433C40.1525 32.9908 41.6667 30.365 41.6667 27.375C41.6667 22.6025 37.8142 18.75 33.0417 18.75C28.2692 18.75 24.4167 22.6025 24.4167 27.375C24.4167 30.365 25.9308 32.9908 28.25 34.5433ZM47.11 43.4175L38.4083 39.0858C38.0825 38.9517 37.7375 38.875 37.3733 38.875H35.9167V27.375C35.9167 25.7842 34.6325 24.5 33.0417 24.5C31.4508 24.5 30.1667 25.7842 30.1667 27.375V47.96C23.2667 46.5033 23.3817 46.5225 23.1325 46.5225C22.5383 46.5225 22.0017 46.7717 21.6183 47.155L20.1042 48.6883L29.5725 58.1567C30.09 58.6742 30.8183 59 31.6042 59H44.6183C46.0558 59 47.1675 57.9458 47.3783 56.5467L48.8158 46.4458C48.835 46.3117 48.8542 46.1775 48.8542 46.0625C48.8542 44.8742 48.1258 43.8392 47.11 43.4175Z" fill="#AD00FF"/>
</svg>
