<svg width="70" height="72" viewBox="0 0 70 72" fill="none" xmlns="http://www.w3.org/2000/svg">
<path d="M20.2787 1.2511H48.819" stroke="#AD00FF"/>
<path d="M48.7214 69.749H20.1811" stroke="#AD00FF"/>
<path d="M0.500001 21.2787L0.5 49.819" stroke="#AD00FF"/>
<path d="M68.8466 21.2787V49.819" stroke="#AD00FF"/>
<path d="M0.397522 21.5785L20.5786 1.39746" stroke="#AD00FF"/>
<path d="M68.6025 49.4214L48.4215 69.6025" stroke="#AD00FF"/>
<path d="M68.6465 21.5347L48.4654 1.35364" stroke="#AD00FF"/>
<path d="M0.353546 49.4655L20.5346 69.6466" stroke="#AD00FF"/>
<path d="M20.6909 1.2511H48.4039" stroke="#AD00FF"/>
<path d="M48.3092 69.749H20.5961" stroke="#AD00FF"/>
<path d="M1.5 21.2787V49.819" stroke="#AD00FF"/>
<path d="M67.8655 21.2787V49.819" stroke="#AD00FF"/>
<path d="M1.38098 21.5734L20.9771 1.39233" stroke="#AD00FF"/>
<path d="M67.6191 49.4266L48.0231 69.6077" stroke="#AD00FF"/>
<path d="M67.6517 21.5399L48.0556 1.35888" stroke="#AD00FF"/>
<path d="M1.34833 49.4603L20.9444 69.6414" stroke="#AD00FF"/>
<path d="M20.2787 2.2511H48.819" stroke="#AD00FF"/>
<path d="M48.7214 70.749H20.1811" stroke="#AD00FF"/>
<path d="M0.500001 22.2787L0.5 50.819" stroke="#AD00FF"/>
<path d="M68.8466 22.2787V50.819" stroke="#AD00FF"/>
<path d="M0.397522 22.5785L20.5786 2.39746" stroke="#AD00FF"/>
<path d="M68.6025 50.4214L48.4215 70.6025" stroke="#AD00FF"/>
<path d="M68.6465 22.5347L48.4654 2.35364" stroke="#AD00FF"/>
<path d="M0.353546 50.4655L20.5346 70.6466" stroke="#AD00FF"/>
<path d="M20.6909 2.2511H48.4039" stroke="#AD00FF"/>
<path d="M48.3092 70.749H20.5961" stroke="#AD00FF"/>
<path d="M1.5 22.2787V50.819" stroke="#AD00FF"/>
<path d="M67.8655 22.2787V50.819" stroke="#AD00FF"/>
<path d="M1.38098 22.5734L20.9771 2.39233" stroke="#AD00FF"/>
<path d="M67.6191 50.4266L48.0231 70.6077" stroke="#AD00FF"/>
<path d="M67.6517 22.5399L48.0556 2.35888" stroke="#AD00FF"/>
<path d="M1.34833 50.4603L20.9444 70.6414" stroke="#AD00FF"/>
<path d="M35.9167 19.75C26.3908 19.75 18.6667 27.4742 18.6667 37H12.9167L20.3725 44.4558L20.5067 44.7242L28.25 37H22.5C22.5 29.5825 28.4992 23.5833 35.9167 23.5833C43.3342 23.5833 49.3333 29.5825 49.3333 37C49.3333 44.4175 43.3342 50.4167 35.9167 50.4167C32.2175 50.4167 28.8633 48.9025 26.4483 46.4683L23.7267 49.19C26.8508 52.3142 31.1442 54.25 35.9167 54.25C45.4425 54.25 53.1667 46.5258 53.1667 37C53.1667 27.4742 45.4425 19.75 35.9167 19.75ZM34 29.3333V38.9167L42.2033 43.785L43.5833 41.4658L36.875 37.4792V29.3333H34Z" fill="#AD00FF"/>
</svg>
