<svg width="70" height="72" viewBox="0 0 70 72" fill="none" xmlns="http://www.w3.org/2000/svg">
<path d="M20.2787 1.2511H48.819" stroke="#AD00FF"/>
<path d="M48.7214 69.749H20.1811" stroke="#AD00FF"/>
<path d="M0.500001 21.2787L0.5 49.819" stroke="#AD00FF"/>
<path d="M68.8466 21.2787V49.819" stroke="#AD00FF"/>
<path d="M0.397507 21.5785L20.5786 1.39746" stroke="#AD00FF"/>
<path d="M68.6025 49.4214L48.4215 69.6025" stroke="#AD00FF"/>
<path d="M68.6465 21.5347L48.4654 1.35364" stroke="#AD00FF"/>
<path d="M0.353554 49.4655L20.5346 69.6466" stroke="#AD00FF"/>
<path d="M20.6909 1.2511H48.4039" stroke="#AD00FF"/>
<path d="M48.3092 69.749H20.5961" stroke="#AD00FF"/>
<path d="M1.5 21.2787V49.819" stroke="#AD00FF"/>
<path d="M67.8655 21.2787V49.819" stroke="#AD00FF"/>
<path d="M1.38097 21.5734L20.9771 1.39233" stroke="#AD00FF"/>
<path d="M67.6191 49.4266L48.023 69.6077" stroke="#AD00FF"/>
<path d="M67.6517 21.5399L48.0556 1.35888" stroke="#AD00FF"/>
<path d="M1.34832 49.4603L20.9444 69.6414" stroke="#AD00FF"/>
<path d="M20.2787 2.2511H48.819" stroke="#AD00FF"/>
<path d="M48.7214 70.749H20.1811" stroke="#AD00FF"/>
<path d="M0.500001 22.2787L0.5 50.819" stroke="#AD00FF"/>
<path d="M68.8466 22.2787V50.819" stroke="#AD00FF"/>
<path d="M0.397507 22.5785L20.5786 2.39746" stroke="#AD00FF"/>
<path d="M68.6025 50.4214L48.4215 70.6025" stroke="#AD00FF"/>
<path d="M68.6465 22.5347L48.4654 2.35364" stroke="#AD00FF"/>
<path d="M0.353554 50.4655L20.5346 70.6466" stroke="#AD00FF"/>
<path d="M20.6909 2.2511H48.4039" stroke="#AD00FF"/>
<path d="M48.3092 70.749H20.5961" stroke="#AD00FF"/>
<path d="M1.5 22.2787V50.819" stroke="#AD00FF"/>
<path d="M67.8655 22.2787V50.819" stroke="#AD00FF"/>
<path d="M1.38097 22.5734L20.9771 2.39233" stroke="#AD00FF"/>
<path d="M67.6191 50.4266L48.023 70.6077" stroke="#AD00FF"/>
<path d="M67.6517 22.5399L48.0556 2.35888" stroke="#AD00FF"/>
<path d="M1.34832 50.4603L20.9444 70.6414" stroke="#AD00FF"/>
<path d="M42.7083 41.8333H41.1942L40.6575 41.3158C42.5358 39.1308 43.6667 36.2942 43.6667 33.2083C43.6667 26.3275 38.0892 20.75 31.2083 20.75C24.3275 20.75 18.75 26.3275 18.75 33.2083C18.75 40.0892 24.3275 45.6667 31.2083 45.6667C34.2942 45.6667 37.1308 44.5358 39.3158 42.6575L39.8333 43.1942V44.7083L49.4167 54.2725L52.2725 51.4167L42.7083 41.8333ZM31.2083 41.8333C26.4358 41.8333 22.5833 37.9808 22.5833 33.2083C22.5833 28.4358 26.4358 24.5833 31.2083 24.5833C35.9808 24.5833 39.8333 28.4358 39.8333 33.2083C39.8333 37.9808 35.9808 41.8333 31.2083 41.8333Z" fill="#AD00FF"/>
</svg>
